<?xml version="1.0" standalone="no"?>
<!DOCTYPE svg PUBLIC "-//W3C//DTD SVG 20010904//EN"
 "http://www.w3.org/TR/2001/REC-SVG-20010904/DTD/svg10.dtd">
<svg version="1.0" xmlns="http://www.w3.org/2000/svg"
 width="260.000000pt" height="260.000000pt" viewBox="0 0 260.000000 260.000000"
 preserveAspectRatio="xMidYMid meet">
<metadata>
Created by potrace 1.11, written by Peter Selinger 2001-2013
</metadata>
<g transform="translate(0.000000,260.000000) scale(0.100000,-0.100000)"
fill="#000000" stroke="none">
<path d="M0 1295 l0 -1295 1300 0 1300 0 0 1295 0 1295 -1300 0 -1300 0 0
-1295z m1000 445 l0 -80 -172 -2 -173 -3 0 -438 0 -437 -92 0 -93 0 0 440 0
440 -175 0 -175 0 0 80 0 80 440 0 440 0 0 -80z m518 -271 c112 -187 208 -339
213 -337 6 2 99 154 208 338 l197 335 77 3 77 3 0 -333 c0 -183 3 -415 6 -515
l6 -183 -91 0 -91 0 0 340 c0 187 -3 340 -8 340 -4 0 -83 -126 -175 -280
l-168 -280 -42 0 -43 0 -168 275 c-92 151 -172 275 -177 275 -5 0 -9 -139 -9
-335 l0 -335 -85 0 -85 0 0 515 0 515 78 0 77 -1 203 -340z"/>
</g>
</svg>
